# xmcd
#
# Track frame offsets:
#	150
#	17863
#	30460
#	56683
#	69378
#	90742
#	109102
#	133838
#	148912
#	169870
#	194628
#	216585
#	239228
#
# Disc length: 3456 seconds
#
# Revision: 3
# Processed by: cddbd v1.5.2PL0 Copyright (c) Steve Scherf et al.
# Submitted via: audiograbber 1.83.01
#
DISCID=d00d7e0d
DTITLE=Boyz II Men - Legacy - The Greatest Hits Collection
DYEAR=2001
DGENRE=R&B
TTITLE0=Motownphilly
TTITLE1=It's So Hard To Say Goodbye To Yesterday
TTITLE2=End Of The Road
TTITLE3=In The Still Of The Nite (I'll Remember)
TTITLE4=Hey Lover (with LL Cool J)
TTITLE5=I'll Make Love To You
TTITLE6=On Bended Knee
TTITLE7=Water Runs Dry
TTITLE8=One Sweet Day (with Mariah Carey)
TTITLE9=Doin' Just Fine
TTITLE10=4 Seasons Of Loneliness
TTITLE11=A Song For Mama
TTITLE12=Pass You By
EXTD=
EXTT0=
EXTT1=
EXTT2=
EXTT3=
EXTT4=
EXTT5=
EXTT6=
EXTT7=
EXTT8=
EXTT9=
EXTT10=
EXTT11=
EXTT12=
PLAYORDER=
